<svg version="1.0" xmlns="http://www.w3.org/2000/svg" viewBox="0 0 1733.000000 237.000000" preserveAspectRatio="xMidYMid meet">
<g transform="translate(0.000000,237.000000) scale(0.100000,-0.100000)" fill="#979797" stroke="none">
<path d="M9724 2341 c-118 -28 -223 -81 -299 -153 -123 -114 -175 -243 -175
-429 0 -159 45 -275 154 -396 73 -80 169 -140 423 -265 223 -111 275 -142 340
-208 66 -65 93 -132 93 -229 0 -103 -27 -178 -86 -241 -85 -91 -194 -130 -360
-130 -166 0 -276 31 -459 130 -52 27 -105 50 -118 50 -34 0 -47 -36 -47 -126
0 -114 22 -147 135 -206 143 -74 300 -108 494 -108 369 1 629 159 728 445 35
98 43 277 18 373 -36 137 -128 260 -263 351 -35 23 -152 86 -260 139 -321 158
-403 216 -454 321 -30 62 -37 185 -14 246 53 138 167 205 352 205 122 0 221
-27 352 -95 58 -30 116 -55 128 -55 34 0 44 29 44 131 l0 92 -39 37 c-40 38
-145 85 -256 115 -96 26 -331 29 -431 6z"/>
<path d="M4995 2340 c-103 -13 -217 -54 -319 -114 -237 -140 -391 -367 -469
-691 -30 -127 -31 -135 -31 -375 0 -239 1 -248 31 -375 91 -383 293 -616 620
-716 83 -25 122 -30 250 -36 218 -9 371 21 538 105 172 86 195 116 195 253 0
140 -21 150 -144 68 -105 -69 -205 -115 -306 -140 -111 -28 -308 -23 -414 11
-222 70 -368 257 -432 551 -29 128 -26 477 3 609 55 240 155 404 311 507 95
62 166 83 307 90 190 9 326 -31 500 -147 100 -67 135 -75 153 -35 14 30 16
173 3 207 -25 67 -176 154 -351 202 -76 21 -123 28 -235 31 -77 2 -171 0 -210
-5z"/>
<path d="M853 2330 c-12 -5 -28 -19 -36 -32 -22 -33 -776 -2131 -783 -2176
-10 -62 8 -72 131 -72 115 0 147 9 165 49 7 14 50 136 96 271 45 135 103 303
129 374 25 71 47 141 49 155 5 36 378 1121 386 1121 4 0 71 -186 150 -412 79
-227 147 -418 151 -423 4 -6 42 -116 83 -245 133 -410 288 -843 313 -868 20
-20 31 -22 141 -22 144 0 158 7 149 71 -8 57 -761 2146 -786 2179 -10 13 -29
28 -42 31 -36 10 -270 9 -296 -1z"/>
<path d="M6253 2330 c-12 -5 -26 -18 -32 -29 -12 -21 -16 -2166 -5 -2208 4
-12 19 -26 36 -32 40 -14 186 -14 227 0 l31 11 0 524 0 524 520 0 520 0 0
-502 c0 -277 3 -513 6 -525 4 -12 19 -26 36 -32 40 -14 186 -14 227 0 l31 11
0 1118 c0 1027 -1 1119 -17 1131 -11 10 -48 14 -130 14 -168 0 -153 50 -153
-501 l0 -454 -520 0 -520 0 0 464 c0 419 -2 465 -17 477 -19 17 -206 24 -240
9z"/>
<path d="M8493 2330 c-12 -5 -26 -18 -32 -29 -12 -21 -16 -2166 -5 -2208 4
-12 19 -26 36 -32 40 -14 186 -14 227 0 l31 11 0 1118 c0 1026 -1 1119 -17
1131 -19 17 -206 24 -240 9z"/>
<path d="M12538 2329 c-10 -5 -18 -21 -18 -34 0 -14 149 -322 330 -685 l330
-660 0 -418 c0 -229 3 -427 6 -439 4 -12 19 -26 36 -32 40 -14 186 -14 227 0
l31 11 0 429 0 429 335 670 c184 369 335 678 335 688 -1 42 -15 47 -137 50
-82 2 -126 -1 -143 -10 -34 -19 -355 -682 -490 -1016 -19 -45 -37 -79 -41 -75
-4 5 -41 87 -82 183 -65 151 -127 284 -380 809 -33 68 -46 86 -73 97 -39 17
-240 19 -266 3z"/>
<path d="M14553 2330 c-12 -5 -26 -18 -32 -29 -13 -24 -15 -2083 -2 -2151 6
-28 19 -53 36 -67 l26 -23 539 0 539 0 15 22 c25 35 22 178 -3 209 l-19 24
-421 3 -421 3 0 993 c0 911 -1 995 -17 1007 -19 17 -206 24 -240 9z"/>
<path d="M2438 2323 c-44 -7 -84 -54 -92 -109 -8 -58 -8 -2091 0 -2121 4 -12
19 -26 36 -32 40 -14 186 -14 227 0 l31 11 0 504 0 504 88 0 c232 0 335 -33
432 -137 75 -80 117 -166 267 -553 63 -162 123 -304 134 -315 17 -17 35 -20
137 -23 105 -3 120 -1 142 16 24 19 24 22 12 68 -14 50 -155 407 -242 610 -90
210 -163 314 -270 382 -53 35 -54 36 -30 45 115 47 180 87 251 157 118 116
159 219 159 399 0 170 -46 296 -144 394 -127 127 -279 182 -541 198 -149 8
-545 10 -597 2z m544 -252 c223 -16 324 -68 386 -201 23 -49 26 -68 26 -170 1
-100 -2 -122 -23 -167 -26 -58 -97 -130 -158 -161 -83 -43 -149 -52 -367 -52
l-206 0 0 380 0 380 108 0 c59 -1 164 -5 234 -9z"/>
<path d="M10779 2311 c-21 -17 -24 -29 -28 -105 -2 -67 1 -92 13 -111 l16 -25
330 0 330 0 0 -977 c0 -538 3 -988 6 -1000 4 -12 19 -26 36 -32 40 -14 186
-14 227 0 l31 11 0 999 0 999 334 0 c395 0 366 -10 366 126 0 66 -4 86 -19
105 l-19 24 -800 3 c-777 2 -800 2 -823 -17z"/>
<path d="M16118 2323 c-44 -7 -84 -54 -92 -109 -9 -71 -6 -2012 3 -2064 6 -28
19 -53 36 -67 l26 -23 584 0 584 0 15 22 c24 34 22 168 -3 199 l-19 24 -466 3
-466 3 0 404 0 405 399 0 400 0 15 22 c24 34 22 159 -3 189 l-19 24 -396 3
-396 3 0 359 0 360 465 0 465 0 16 25 c23 35 17 177 -9 202 -17 17 -54 18
-565 19 -301 1 -559 -1 -574 -3z"/>
</g>
</svg>
